<svg xmlns="http://www.w3.org/2000/svg" viewBox="0 0 100 125">
  <path d="M50.125 62.86c-1.035 0-1.875.84-1.875 1.875v.585c0 1.039.84 1.875 1.875 1.875A1.873 1.873 0 0 0 52 65.32v-.585c0-1.035-.84-1.875-1.875-1.875m-.03-29.805c-6.532 0-11.85 5.318-11.85 11.85 0 1.035.84 1.875 1.875 1.875.424 0 .795-.165 1.11-.405.454-.341.765-.859.765-1.47 0-4.466 3.634-8.1 8.1-8.1 2.359 0 4.725 1.095 6.337 2.925 1.395 1.594 2.026 3.536 1.77 5.479-.314 2.377-2.167 3.686-4.32 5.208-2.043 1.444-4.3 3.068-5.242 5.798a7.957 7.957 0 0 0-.409 1.725 1.874 1.874 0 0 0 3.728.416c.232-2.055 1.706-3.195 4.091-4.879 2.505-1.77 5.344-3.776 5.869-7.777.397-3.03-.551-6.03-2.67-8.441-2.31-2.633-5.73-4.204-9.154-4.204m.03 41.445c-13.44 0-24.375-10.935-24.375-24.375 0-13.436 10.935-24.375 24.375-24.375S74.5 36.689 74.5 50.125c0 13.44-10.935 24.375-24.375 24.375m0-52.5C34.615 22 22 34.619 22 50.125c0 15.51 12.615 28.125 28.125 28.125S78.25 65.635 78.25 50.125C78.25 34.619 65.635 22 50.125 22" fill="currentColor" fill-rule="evenodd"/>
</svg>
