<svg viewBox="0 0 22 22" xmlns="http://www.w3.org/2000/svg">
<path d="M4 1C4 0.45 3.55 0 3 0C2.45 0 2 0.45 2 1V5H0V11H6V5H4V1ZM8 15C8 16.3 8.84 17.4 10 17.82V22H12V17.82C13.16 17.41 14 16.31 14 15V13H8V15ZM0 15C0 16.3 0.84 17.4 2 17.82V22H4V17.82C5.16 17.4 6 16.3 6 15V13H0V15ZM20 5V1C20 0.45 19.55 0 19 0C18.45 0 18 0.45 18 1V5H16V11H22V5H20ZM12 1C12 0.45 11.55 0 11 0C10.45 0 10 0.45 10 1V5H8V11H14V5H12V1ZM16 15C16 16.3 16.84 17.4 18 17.82V22H20V17.82C21.16 17.41 22 16.31 22 15V13H16V15Z" fill="currentColor"/>
</svg>
