<svg
   xmlns:dc="http://purl.org/dc/elements/1.1/"
   xmlns:cc="http://creativecommons.org/ns#"
   xmlns:rdf="http://www.w3.org/1999/02/22-rdf-syntax-ns#"
   xmlns:svg="http://www.w3.org/2000/svg"
   xmlns="http://www.w3.org/2000/svg"
   xmlns:sodipodi="http://sodipodi.sourceforge.net/DTD/sodipodi-0.dtd"
   xmlns:inkscape="http://www.inkscape.org/namespaces/inkscape"
   version="1.1"
   id="Calque_1"
   x="0px"
   y="0px"
   viewBox="0 0 47.7 77.7"
   style="enable-background:new 0 0 47.7 77.7;"
   xml:space="preserve"
   sodipodi:docname="Carburant.svg"
   inkscape:version="0.92.0 r15299"><metadata
     id="metadata17"><rdf:RDF><cc:Work
         rdf:about=""><dc:format>image/svg+xml</dc:format><dc:type
           rdf:resource="http://purl.org/dc/dcmitype/StillImage" /></cc:Work></rdf:RDF></metadata><defs
     id="defs15" /><sodipodi:namedview
     pagecolor="#ffffff"
     bordercolor="#666666"
     borderopacity="1"
     objecttolerance="10"
     gridtolerance="10"
     guidetolerance="10"
     inkscape:pageopacity="0"
     inkscape:pageshadow="2"
     inkscape:window-width="640"
     inkscape:window-height="480"
     id="namedview13"
     showgrid="false"
     inkscape:zoom="3.0373232"
     inkscape:cx="23.85"
     inkscape:cy="38.849998"
     inkscape:window-x="0"
     inkscape:window-y="0"
     inkscape:window-maximized="0"
     inkscape:current-layer="Calque_1" /><style
     type="text/css"
     id="style2">
	.st0{fill:#020203;}
</style><g
     id="g10"
     transform="matrix(1.9491525,0,0,1.7230676,-23.868219,-25.619229)"><path
       class="st0"
       d="m 35.8,35.6 c 0,-0.8 0,-1.6 -0.1,-2.2 0,-0.1 -0.1,-0.5 -0.1,-0.7 -0.7,-2.9 -1.9,-3.8 -4.4,-3.7 h -0.9 c 0,-0.4 0,-0.7 -0.1,-1 C 30.1,27.7 30.1,27.5 30,27.3 29.3,24.4 28.1,23.5 25.6,23.6 H 18.5 C 16,23.5 14.8,24.4 14.1,27.3 14,27.5 14,27.8 13.9,28 c -0.1,0.6 -0.1,1.4 -0.1,2.2 0,0.3 0,0.7 0,1 v 0.1 c 0,1 0,15.9 0,16.3 0,0.8 0,1.6 0.1,2.2 0,0.1 0.1,0.5 0.2,0.7 0.1,0.5 0.2,0.9 0.4,1.3 h -0.8 v 2.3 h 17 v -2.3 h -1.1 c 0.2,-0.4 0.3,-0.9 0.4,-1.3 0.1,-0.2 0.1,-0.6 0.2,-0.7 l 0.1,-3 v -5.3 c 0,-3.9 0,-8.7 0,-10.2 h 0.1 c 1.7,0 2.4,0.4 2.7,2 0.2,1.1 0.3,2.2 0.3,3.2 0,0 0,1.6 0,3.5 0,0.3 0.2,0.5 0.5,0.5 h 1.5 c 0.3,0 0.5,-0.2 0.5,-0.5 -0.1,-2.3 -0.1,-4.3 -0.1,-4.4 z m -8,10.8 c 0,0 0,0.1 0,0.2 0,1.1 -0.1,2.2 -0.3,3.2 -0.3,1.5 -0.9,2 -2.5,2 h -3.8 -2.4 c -1.3,-0.1 -1.9,-0.5 -2.2,-2 L 16.3,31.1 c 0,-1.1 0.1,-2.2 0.3,-3.3 0.3,-1.6 1,-2 2.7,-2 h 5.6 c 1.7,0 2.4,0.4 2.7,2 0.2,0.8 0.2,1.7 0.3,2.5 v 16.1 z"
       id="path4"
       inkscape:connector-curvature="0"
       style="fill:#020203" /><rect
       x="20"
       y="33"
       class="st0"
       width="3.9000001"
       height="2.3"
       id="rect6"
       style="fill:#020203" /><rect
       x="19"
       y="29.1"
       class="st0"
       width="6"
       height="2.3"
       id="rect8"
       style="fill:#020203" /></g></svg>
