<svg id="Calque_1" data-name="Calque 1" xmlns="http://www.w3.org/2000/svg" viewBox="0 0 44.17 43.54"><title>Collèges</title><path d="M43.18,22.82l2.29-.51c.35-.09.67-.17.94-.26s.46-.18.69-.29c2.69-1.26,3.29-2.59,2.73-5.06-.05-.23-.16-.77-.28-1.34l-.2-1-.47-2.31-.2-1c-.12-.57-.23-1.11-.28-1.34-.45-2.5-1.53-3.49-4.5-3.58-.25,0-.6,0-.75,0-.59.05-1.36.19-2.18.34l-1,.18h-.08L14.45,11.9,6.26,22l12,5.92Zm.6-14.12c1.64,0,2.18.59,2.48,2.26,0,.12.13.63.23,1.09l.18.88h0l.26,1.26h0l.23,1.13c.09.46.19,1,.22,1.09.38,1.65.11,2.39-1.39,3.05a13.87,13.87,0,0,1-1.92.63l-2.3-11.2A13.91,13.91,0,0,1,43.78,8.7ZM41,16.2,19.48,20.61,19,18.05l21.52-4.41ZM39.58,9.27l.45,2.2L18.51,15.88l-.44-2.17ZM10.17,21.15l2.05-2.53L13,22.56Zm5,2.44-1.4-6.83,2.1-2.6h.06l2.24,10.92Zm5.24,1.35-.44-2.16,21.52-4.41.45,2.18Z" transform="translate(-6.26 -6.14)"/><path d="M50.43,39.27c0-.58,0-1.13,0-1.37.06-2.54-.8-3.72-3.69-4.41-.25-.06-.59-.13-.73-.15-.59-.07-1.37-.08-2.21-.1l-1,0H14.64l-2.34,0c-.36,0-.69,0-1,.07s-.49.09-.73.15c-2.88.69-3.75,1.88-3.69,4.41,0,.24,0,.79,0,1.37,0,.2,0,.62,0,1v2.36c0,.31,0,.72,0,1,0,.58,0,1.13,0,1.37-.06,2.54.8,3.72,3.69,4.41.25.06.59.13.73.15.59.07,1.37.08,2.21.1l1,0H42.68l2.34,0c.36,0,.69,0,1-.07s.49-.09.73-.15c2.88-.69,3.75-1.88,3.69-4.41,0-.24,0-.79,0-1.37,0-.2,0-.62,0-1V40.27C50.43,40,50.43,39.55,50.43,39.27ZM48.09,42h0c0,.14,0,1,0,1.16,0,.47,0,1,0,1.11,0,1.69-.38,2.37-2,2.71a16.7,16.7,0,0,1-2.54.26l-29.08,0h0a21.32,21.32,0,0,1-3.24-.29c-1.6-.34-2-1-2-2.71,0-.12,0-.65,0-1.11,0-.18,0-.76,0-.9h0V40.93h0c0-.14,0-1,0-1.16,0-.47,0-1,0-1.11,0-1.69.38-2.37,2-2.71a9.4,9.4,0,0,1,.94-.14v3h1.5V35.7h2V38.8h1.5V35.69h2V38.8h1.5V35.69h2V38.8h1.5V35.69h2V38.8h1.5V35.68h2V38.8h1.5V35.68h2V38.8h1.5V35.68h2V38.8h1.5V35.68h2V38.8h1.5V35.68h1.2l.8,0V38.8h1.5v-3a9.48,9.48,0,0,1,.94.14c1.6.34,2,1,2,2.71,0,.12,0,.65,0,1.11,0,.18,0,.76,0,.9h0Z" transform="translate(-6.26 -6.14)"/></svg>