<svg
   xmlns:dc="http://purl.org/dc/elements/1.1/"
   xmlns:cc="http://creativecommons.org/ns#"
   xmlns:rdf="http://www.w3.org/1999/02/22-rdf-syntax-ns#"
   xmlns:svg="http://www.w3.org/2000/svg"
   xmlns="http://www.w3.org/2000/svg"
   xmlns:sodipodi="http://sodipodi.sourceforge.net/DTD/sodipodi-0.dtd"
   xmlns:inkscape="http://www.inkscape.org/namespaces/inkscape"
   version="1.1"
   id="Calque_1"
   x="0px"
   y="0px"
   viewBox="0 0 148.6 115.4"
   style="enable-background:new 0 0 148.6 115.4;"
   xml:space="preserve"
   sodipodi:docname="depensesElectricite.svg"
   inkscape:version="0.92.0 r15299"><metadata
     id="metadata19"><rdf:RDF><cc:Work
         rdf:about=""><dc:format>image/svg+xml</dc:format><dc:type
           rdf:resource="http://purl.org/dc/dcmitype/StillImage" /></cc:Work></rdf:RDF></metadata><defs
     id="defs17" /><sodipodi:namedview
     pagecolor="#ffffff"
     bordercolor="#666666"
     borderopacity="1"
     objecttolerance="10"
     gridtolerance="10"
     guidetolerance="10"
     inkscape:pageopacity="0"
     inkscape:pageshadow="2"
     inkscape:window-width="640"
     inkscape:window-height="480"
     id="namedview15"
     showgrid="false"
     inkscape:zoom="2.0450606"
     inkscape:cx="74.300003"
     inkscape:cy="57.700001"
     inkscape:window-x="0"
     inkscape:window-y="0"
     inkscape:window-maximized="0"
     inkscape:current-layer="Calque_1" /><g
     id="g8"
     transform="matrix(3.8357952,0,0,3.7646349,-192.6732,-164.7543)"><rect
       x="80.099998"
       y="63.900002"
       width="5.4000001"
       height="2.4000001"
       id="rect2" /><rect
       x="80.099998"
       y="56.599998"
       width="5.4000001"
       height="2.4000001"
       id="rect4" /><path
       d="m 73.3,52.7 v 0 c -0.1,0 -0.7,0.1 -0.9,0.2 -1.1,0.1 -2.3,0.1 -3.3,0.1 -0.9,0 -1.7,0 -2.3,0.1 -0.1,0 -0.5,0.1 -0.8,0.2 -3,0.7 -3.8,1.9 -3.8,4.5 v 2.3 C 60.8,60.1 59.5,60 58.5,59.7 57,59.4 56,58.2 56,56.6 V 46.3 h -2.4 v 11 c 0,2.6 1.5,4.2 4.4,4.9 0.2,0.1 0.6,0.1 0.7,0.1 0.9,0.1 2.2,0.2 3.6,0.2 V 65 c -0.1,2.6 0.8,3.8 3.8,4.5 0.3,0.1 0.6,0.1 0.8,0.2 0.6,0.1 1.4,0.1 2.3,0.1 1,0 2.1,0 3.2,0.2 0.2,0 0.8,0.1 0.9,0.2 v 0 c 2.4,0.6 3.3,1.4 3.5,2.1 h 2.4 V 50.6 h -2.4 c -0.2,0.7 -1.1,1.6 -3.5,2.1 z m 3.5,15.8 c -0.6,-0.3 -1.2,-0.5 -1.9,-0.7 -0.2,0 -2,-0.3 -2.6,-0.4 -0.7,-0.1 -1.4,-0.1 -2.1,-0.1 -1.3,-0.1 -2.4,-0.1 -3.3,-0.3 -1.6,-0.4 -2.1,-1 -2,-2.8 v -5.7 c 0,-1.7 0.4,-2.4 2,-2.8 0.9,-0.2 2.1,-0.2 3.3,-0.3 0.7,0 1.4,-0.1 2.1,-0.1 0.6,0 2.5,-0.3 2.6,-0.4 0.7,-0.1 1.4,-0.4 1.9,-0.7 z"
       id="path6"
       inkscape:connector-curvature="0" /></g><g
     id="g12"
     transform="matrix(6.1517858,0,0,4.1057032,-355.13267,-186.53382)"><path
       d="m 73.3,64.7 c -0.4,0.2 -1,0.4 -1.7,0.4 -1,0 -1.9,-0.4 -2.5,-1.1 -0.4,-0.4 -0.6,-1 -0.7,-1.6 h -0.7 v -0.7 h 0.6 c 0,-0.1 0,-0.1 0,-0.2 0,-0.1 0,-0.3 0,-0.4 h -0.6 v -0.7 h 0.7 c 0.1,-0.7 0.4,-1.2 0.8,-1.7 0.6,-0.7 1.4,-1 2.4,-1 0.7,0 1.2,0.2 1.6,0.3 l -0.3,1 c -0.3,-0.2 -0.7,-0.3 -1.2,-0.3 -0.6,0 -1,0.2 -1.4,0.6 -0.2,0.2 -0.4,0.6 -0.5,1 h 2.9 V 61 h -3 c 0,0.1 0,0.3 0,0.4 0,0.1 0,0.1 0,0.2 h 3 v 0.7 h -2.9 c 0.1,0.5 0.2,0.8 0.5,1.1 0.4,0.4 0.9,0.6 1.5,0.6 0.5,0 1,-0.2 1.3,-0.3 z"
       id="path10"
       inkscape:connector-curvature="0" /></g></svg>
