<svg id="Calque_1" data-name="Calque 1" xmlns="http://www.w3.org/2000/svg" viewBox="0 0 24.78 49.52"><title>ElectriciteÌ</title><rect x="6.88" y="41.32" width="2.76" height="8.21"/><rect x="15.15" y="41.32" width="2.76" height="8.21"/><path d="M44.45,40v0c0-.08-.15-.78-.18-1-.12-1.25-.15-2.54-.18-3.68,0-1,0-1.9-.12-2.59,0-.17-.1-.57-.17-.86-.81-3.39-2.21-4.4-5.19-4.33H35.83V22c0-.3-.24-1.56-.33-2.06a5.5,5.5,0,0,0-5.2-4.83c-.78-.2-2.12-.92-2.67-3.71,0-.12-.07-.4-.08-.53,0-.65,0-2.62,0-2.62H24.79s0,2,0,2.67.23,1.56.33,2.13a5.5,5.5,0,0,0,5.2,4.83c.78.2,2.12.92,2.67,3.71,0,.09.06.32.07.42v5.49H30.27c-3-.07-4.37.94-5.19,4.33-.07.29-.15.69-.17.86-.08.69-.1,1.61-.12,2.59,0,1.14-.06,2.43-.18,3.68,0,.27-.16,1-.18,1v0c-.63,2.79-1.6,3.81-2.38,4v2.76H46.84V44C46.06,43.81,45.09,42.79,44.45,40ZM26.33,44a7.79,7.79,0,0,0,.78-2.18c0-.19.37-2.3.42-3s.1-1.65.13-2.45A25.17,25.17,0,0,1,28,32.54c.4-1.88,1.19-2.37,3.18-2.32h6.54c2,0,2.78.44,3.18,2.32a25.17,25.17,0,0,1,.34,3.82c0,.8.07,1.63.13,2.45s.39,2.82.42,3A7.79,7.79,0,0,0,42.57,44Z" transform="translate(-22.06 -8.2)"/></svg>