<svg id="Calque_1" data-name="Calque 1" xmlns="http://www.w3.org/2000/svg" viewBox="0 0 44.9 44.9"><title>Enfance</title><path d="M32.41,11A22.45,22.45,0,1,0,54.86,33.46,22.48,22.48,0,0,0,32.41,11Zm0,41.63A19.18,19.18,0,1,1,51.59,33.46,19.2,19.2,0,0,1,32.41,52.64Z" transform="translate(-9.95 -11)"/><circle cx="16.78" cy="16.72" r="1.91"/><circle cx="28.24" cy="16.72" r="1.91"/><path d="M32.41,43.83a9.93,9.93,0,0,1-7.34-2.67l0,0-1.49,1.49,0,0a12,12,0,0,0,8.86,3.3c4.53,0,7.42-1.64,9.28-3.73L40.2,40.73C38.66,42.47,36.23,43.83,32.41,43.83Z" transform="translate(-9.95 -11)"/></svg>