<svg id="Calque_1" data-name="Calque 1" xmlns="http://www.w3.org/2000/svg" viewBox="0 0 79.11 66.56"><title>Environnement ameÌnagement</title><path d="M13.12,50.1V40L22,32.91,30.81,40v4.38a11.66,11.66,0,0,1,2.57,1.34v-7L22,29.56,10.54,38.77V53.05C11.4,52,12.26,51,13.12,50.1Z" transform="translate(-6.31 -4.32)"/><path d="M84.48,42.95c-3.91-15.23-4.66-15.23-6.3-15.23h-.42c-1.64,0-2.38,0-6.3,15.23C68.22,55.64,74.38,60,76.61,61.17V65c-3.44-4.38-6.89-7.3-10.31-8.72V53.76a5.06,5.06,0,0,0,1.9-1.66c.86-1.24,1.68-3.54.67-7.45C66.91,37,66.54,37,65.72,37h-.21c-.82,0-1.19,0-3.15,7.61-1.63,6.34,1.45,8.54,2.57,9.11v2.07a12.56,12.56,0,0,0-2.1-.45c-.81-4.27-2.3-7.58-4.5-9.83a12.21,12.21,0,0,0-7.8-3.6V37.78a10.12,10.12,0,0,0,3.8-3.32c1.72-2.48,3.35-7.07,1.34-14.91C51.76,4.32,51,4.32,49.38,4.32H49c-1.64,0-2.38,0-6.3,15.23-3.26,12.69,2.91,17.08,5.14,18.22v4.1c-4.27.32-8.61,3-12.95,8a12,12,0,0,0-1.47-1.18,11.66,11.66,0,0,0-2.57-1.34,15.13,15.13,0,0,0-5.28-.87c-4.09,0-8.25,2.21-12.41,6.55-.86.9-1.72,1.88-2.58,3q-.52.66-1,1.36C8.28,59,7.2,60.65,6.31,62.12H9.61c3.65-5.56,9.61-12.84,15.91-12.84a10,10,0,0,1,7.58,2.77,11.32,11.32,0,0,1,1.76,2.33,21.09,21.09,0,0,1,2.4,7.73H40a23.21,23.21,0,0,0-3.35-10c3.39-4,7.59-7.49,12-7.49,2.44,0,9.12,0,11.38,10.73a12.41,12.41,0,0,0-7.93,3.33c-.12.11-.24.21-.35.32a13.14,13.14,0,0,0-1.49,1.86,23.21,23.21,0,0,0-3.35,10h2.77a21.09,21.09,0,0,1,2.4-7.73,11.32,11.32,0,0,1,1.76-2.33A10,10,0,0,1,61.42,58c6.3,0,12.27,7.27,15.91,12.84h3.31c-.4-.65-.84-1.34-1.3-2V61.18a10.12,10.12,0,0,0,3.8-3.32C84.87,55.38,86.5,50.79,84.48,42.95ZM63.62,45c1.2-4.66,1.75-6.14,2-6.58.25.44.8,1.93,2,6.58s-.31,6.51-1.31,7.27V50.16H64.94v2.07C63.94,51.46,62.46,49.5,63.62,45ZM45.18,20.19c2.39-9.31,3.49-12.27,4-13.16.49.89,1.59,3.85,4,13.16,2.34,9.11-.62,13-2.62,14.55V30.58H47.8v4.14C45.81,33.18,42.86,29.25,45.18,20.19Zm34.16,38V54H76.61v4.14c-2-1.55-4.95-5.47-2.62-14.53,2.39-9.31,3.49-12.27,4-13.16.49.89,1.59,3.85,4,13.16C84.31,52.7,81.35,56.61,79.35,58.14Z" transform="translate(-6.31 -4.32)"/><rect x="10.25" y="35.45" width="2.88" height="2.88"/><rect x="18.19" y="35.45" width="2.88" height="2.88"/></svg>