<svg id="Calque_1" data-name="Calque 1" xmlns="http://www.w3.org/2000/svg" viewBox="0 0 32.35 45.14"><title>HandicapeÌs</title><path d="M49,53.87a1.63,1.63,0,0,1-1-.3,1.76,1.76,0,0,1-.59-.77l0-.11V48.45c0-2.25,0-4.58-.15-6.1,0-.18-.13-.79-.15-.87-1.16-5.07-4.36-5.07-5.41-5.07H33.9V30.21l.39.16a10.84,10.84,0,0,0,1.75.55c.62.12.81.15.86.15,1.51.13,3.83.14,6.08.15h1.74V28.29H44.6l-1.47,0c-.87,0-1.74,0-2.56,0a23.15,23.15,0,0,1-3.85-.24,3.26,3.26,0,0,1-2.81-3.56V20.16H31V39.35h9.82a3.26,3.26,0,0,1,3.56,2.81,36.6,36.6,0,0,1,.21,6.38l0,1.19c0,.05,0,.86,0,1.63s0,1.35,0,1.39a3.39,3.39,0,0,0,.6,1.57,2.81,2.81,0,0,0,2.65,1.39h.11a4.7,4.7,0,0,0,1.58-.26l.1,0-.43-1.56Z" transform="translate(-17.21 -10.59)"/><circle cx="15.22" cy="3.55" r="3.55"/><path d="M42.45,41.79H39.17v.13A9.6,9.6,0,0,1,39.25,43a9.39,9.39,0,1,1-10.89-9.27l.11,0V25.82a3.43,3.43,0,0,0-.6-1.57,2.81,2.81,0,0,0-2.65-1.39h-.1a4.69,4.69,0,0,0-1.58.26l-.1,0,.43,1.56H24a1.63,1.63,0,0,1,1,.3,1.76,1.76,0,0,1,.59.77l0,.11v5.2l-.18.07A12.65,12.65,0,1,0,42.51,43c0-.35,0-.7-.05-1.09Z" transform="translate(-17.21 -10.59)"/></svg>