<svg
   xmlns:dc="http://purl.org/dc/elements/1.1/"
   xmlns:cc="http://creativecommons.org/ns#"
   xmlns:rdf="http://www.w3.org/1999/02/22-rdf-syntax-ns#"
   xmlns:svg="http://www.w3.org/2000/svg"
   xmlns="http://www.w3.org/2000/svg"
   xmlns:sodipodi="http://sodipodi.sourceforge.net/DTD/sodipodi-0.dtd"
   xmlns:inkscape="http://www.inkscape.org/namespaces/inkscape"
   version="1.1"
   id="Calque_1"
   x="0px"
   y="0px"
   viewBox="0 0 148.6 115.4"
   style="enable-background:new 0 0 148.6 115.4;"
   xml:space="preserve"
   sodipodi:docname="Insertion.svg"
   inkscape:version="0.92.0 r15299"><metadata
     id="metadata9"><rdf:RDF><cc:Work
         rdf:about=""><dc:format>image/svg+xml</dc:format><dc:type
           rdf:resource="http://purl.org/dc/dcmitype/StillImage" /></cc:Work></rdf:RDF></metadata><defs
     id="defs7" /><sodipodi:namedview
     pagecolor="#ffffff"
     bordercolor="#666666"
     borderopacity="1"
     objecttolerance="10"
     gridtolerance="10"
     guidetolerance="10"
     inkscape:pageopacity="0"
     inkscape:pageshadow="2"
     inkscape:window-width="640"
     inkscape:window-height="480"
     id="namedview5"
     showgrid="false"
     inkscape:zoom="2.0450606"
     inkscape:cx="74.300003"
     inkscape:cy="57.700001"
     inkscape:window-x="637"
     inkscape:window-y="199"
     inkscape:window-maximized="0"
     inkscape:current-layer="Calque_1" /><path
     d="m 129.34693,59.717025 -5.70634,-5.042562 C 136.47988,41.815931 135.62392,22.6542 121.92868,10.552051 115.08106,4.5009792 105.9509,0.97118574 95.964775,0.97118574 c -8.844846,0 -17.404374,2.77340816 -24.251998,8.06809726 -6.562306,-5.2946891 -15.121836,-8.06809726 -24.252,-8.06809726 -9.700802,0 -19.116284,3.27766506 -25.963906,9.58086526 -14.2658845,12.606403 -14.2658845,33.028778 0,45.63518 l 5.135716,4.538304 -6.276988,5.546819 -0.570637,0.504255 v 0 c -3.423809,4.03405 -2.853176,9.832995 1.141271,13.614914 2.282543,2.017026 5.135718,3.025539 8.274211,3.025539 0,2.773408 1.141272,5.294689 3.423815,7.311713 2.282542,2.017025 5.135716,3.025538 8.27421,3.025538 0,2.773408 1.14127,5.294689 3.423811,7.311717 2.282543,2.01703 5.135718,3.02553 8.274213,3.02553 0,2.7734 1.14127,5.2947 3.423812,7.31171 2.282542,2.01704 5.135717,3.02555 8.274213,3.02555 2.28254,0 4.279764,-0.50426 6.276987,-1.7649 l 7.418258,-6.30321 c 1.997225,1.51278 4.565084,2.26915 7.132943,2.26915 3.138494,0 6.276996,-1.0085 8.274211,-3.02554 2.282543,-2.01702 3.423816,-4.53829 3.423816,-7.311704 3.138483,0 5.991657,-1.008512 8.274197,-3.025535 2.28256,-2.017026 3.42383,-4.538306 3.42383,-7.311714 3.13848,0 5.99167,-1.008513 8.2742,-3.025537 2.28255,-2.017025 3.42382,-4.538307 3.42382,-7.311715 3.13851,0 5.99167,-1.26064 8.27422,-3.025536 5.42103,-4.286176 5.42103,-10.841507 0.85593,-14.875554 z m -5.13571,10.337248 c -0.85593,0.756386 -1.99722,1.260642 -3.4238,1.260642 -1.14127,0 -2.28255,-0.252129 -2.85319,-0.756385 l -11.69803,-10.337251 -5.42103,4.538306 11.69803,10.085122 c 1.71189,1.512768 1.71189,4.286178 0,5.798946 -1.7119,1.512769 -4.85041,1.512769 -6.5623,0 L 94.53819,70.55853 89.117152,75.096835 100.81517,85.181957 c 1.71191,1.512768 1.71191,4.286178 0,5.798946 -1.71189,1.512768 -4.850395,1.512768 -6.562295,0 L 82.840164,80.895781 77.41913,85.434085 89.117152,95.519208 c 1.711908,1.512769 1.711908,4.286177 0,5.798942 -1.426587,1.26065 -4.279764,1.51277 -5.991669,0.50425 0.570633,-1.26063 0.855952,-2.521271 0.855952,-4.034041 0,-2.773408 -1.141271,-5.546816 -3.423812,-7.311713 -2.282541,-2.017023 -5.135718,-3.025535 -8.274212,-3.025535 0,-2.773409 -1.426587,-5.294689 -3.423812,-7.311714 -2.282541,-2.017024 -5.135718,-3.025537 -8.274211,-3.025537 0,-2.773408 -1.426589,-5.294689 -3.423812,-7.311714 -2.282541,-2.017024 -5.135719,-3.025537 -8.274212,-3.025537 0,-2.773408 -1.426587,-5.294689 -3.423812,-7.311713 -2.282541,-2.017025 -5.135718,-3.025538 -8.274212,-3.025538 -1.426589,0 -3.138493,0.25213 -4.565081,0.756386 l -5.706355,-5.042562 c -11.412705,-10.085123 -11.412705,-26.725574 0,-36.810696 5.706355,-5.042562 12.839295,-7.5638429 20.828189,-7.5638429 6.847623,0 13.695247,2.2691529 19.116282,6.3032009 L 38.33061,39.29465 38.045293,39.546779 v 0 c -3.70913,4.03405 -3.423813,10.33725 0.855953,14.119171 2.282541,2.017026 5.135719,3.025538 8.274212,3.025538 3.138493,0 5.99167,-1.008512 8.274211,-3.025538 L 80.272305,31.73081 c 1.711908,-1.512769 4.850401,-1.26064 6.562308,0.252127 l 29.102407,25.464934 4.56507,4.034049 v 0 l 3.70913,3.277665 c 0.85596,0.756384 1.42659,1.764897 1.42659,3.025537 0,0.252127 -0.57063,1.26064 -1.42659,2.269151 z M 48.887364,91.233032 c 1.426587,-1.260643 7.703577,-6.807459 7.988892,-7.059587 0.855954,-0.756383 1.997226,-1.26064 3.423813,-1.26064 1.141271,0 2.567859,0.504257 3.423812,1.26064 1.711906,1.512768 1.711906,4.286178 0,5.798944 l -7.418258,6.555332 c -1.711907,1.512768 -4.8504,1.512768 -6.562305,0 -1.711908,-1.51277 -1.997225,-3.781921 -0.855954,-5.294689 z m -11.127389,-10.841509 7.41826,-6.555327 c 0.855954,-0.756385 1.997223,-1.260641 3.423811,-1.260641 1.141272,0 2.567859,0.504256 3.423811,1.260641 1.711906,1.512767 1.711906,4.034047 0.285319,5.546816 l -7.703578,6.807458 c -1.711905,1.512768 -4.850399,1.512768 -6.562305,0 -1.711905,-1.512768 -1.997224,-4.286176 -0.285318,-5.798947 z m -11.983342,-10.08512 7.988896,-7.059587 c 0.855951,-0.756383 1.997222,-1.26064 3.138492,-1.26064 1.141272,0 2.56786,0.504257 3.423813,1.26064 1.711905,1.512769 1.711905,3.781922 0.285318,5.546818 l -7.703577,6.807458 c -1.711905,1.512768 -4.8504,1.512768 -6.562305,0 -1.711907,-1.26064 -1.997225,-3.529794 -0.570637,-5.294689 z M 91.970331,26.940376 c -2.282543,-2.017025 -5.135718,-3.025536 -8.274215,-3.025536 -2.853174,0 -5.421034,0.756382 -7.703574,2.52128 L 50.59927,48.623388 v 0.25213 c -1.711906,1.512768 -4.850401,1.512768 -6.562305,0 -0.855954,-0.756386 -1.426591,-1.764898 -1.426591,-3.025537 0,-1.008514 0.570637,-2.017025 1.426591,-2.773408 L 75.421905,15.342486 C 81.12826,10.299924 88.2612,7.7786431 96.250089,7.7786431 c 7.988911,0 15.407151,2.7734079 20.828201,7.5638429 10.84207,9.580865 11.41271,24.960676 1.7119,35.297928 z M 60.014753,103.83944 c 0,-1.00852 0.570635,-2.26916 1.426587,-3.02554 l 7.418259,-6.303205 c 0.855954,-0.756382 1.997225,-1.26064 3.423812,-1.26064 1.141272,0 2.567859,0.504258 3.423813,1.26064 1.426587,1.260642 1.711906,3.781921 0.570634,5.29469 l -8.274212,7.311715 c -1.711905,1.26064 -4.8504,1.26064 -6.276987,-0.25214 -1.141271,-0.75637 -1.711906,-1.76488 -1.711906,-3.02552 z"
     id="path2"
     inkscape:connector-curvature="0"
     style="stroke-width:2.68209934" /></svg>
