<svg id="Calque_1" data-name="Calque 1" xmlns="http://www.w3.org/2000/svg" viewBox="0 0 50.9 38.2"><defs><style>.cls-1{fill:#1d1d1b;}</style></defs><title>Patrimoine</title><polygon class="cls-1" points="39.47 19.14 34.48 23.17 34.48 8.04 34.47 8.04 25.93 1.17 24.48 0 23.03 1.17 14.49 8.05 14.49 8.04 14.49 25.01 11.43 22.55 0 31.75 0.01 38.2 2.58 38.2 2.58 33.02 11.43 25.9 20.27 33.02 20.27 38.2 22.85 38.2 22.85 31.75 17.07 27.09 17.07 9.32 24.48 3.35 31.89 9.32 31.89 25.25 28.05 28.35 28.05 38.2 30.63 38.2 30.63 29.61 39.47 22.49 48.32 29.61 48.32 38.2 50.89 38.2 50.9 28.35 39.47 19.14"/><path class="cls-1" d="M31.55,22.88h0a4,4,0,1,0,4,4A4,4,0,0,0,31.52,22.88Zm0,6.25a2.29,2.29,0,1,1,0-4.59h0a2.29,2.29,0,1,1,0,4.59Z" transform="translate(-6.96 -13.61)"/></svg>