<svg id="Calque_1" data-name="Calque 1" xmlns="http://www.w3.org/2000/svg" viewBox="0 0 21.44 46.22"><title>Personnesâgées</title><path d="M41.51,28.37a4.12,4.12,0,0,0-2.54-.8H35.49A21.46,21.46,0,0,1,30.1,27a4.26,4.26,0,0,1-3.57-4.67c0-.14,0-.65,0-1.19V19.57l.28-.29a3.28,3.28,0,0,1,1.39-.88V15.18a6.61,6.61,0,0,0-5.92,5.7,27.09,27.09,0,0,0-.59,3.51V51.63a4.15,4.15,0,0,0,.8,2.57,3.23,3.23,0,0,0,3.15,1.62,6.59,6.59,0,0,0,1.84-.22l-.39-1.39A2.34,2.34,0,0,1,26,53.76a2.46,2.46,0,0,1-1.14-2.09V38.79H29a4.12,4.12,0,0,1,4.36,3.58,31,31,0,0,1,.22,5.72l0,3.55a4.15,4.15,0,0,0,.8,2.57,3.23,3.23,0,0,0,3.15,1.62,6.6,6.6,0,0,0,1.84-.22L39,54.2a2.34,2.34,0,0,1-1.12-.43,2.46,2.46,0,0,1-1.14-2.09V46.54a26.39,26.39,0,0,0-.18-3.9c0-.14-.1-.64-.18-1-.92-4-2.91-5.93-6.25-6H24.83V28.09l1.51.9a10.49,10.49,0,0,0,2.95,1.15c.39.09.84.18,1,.2l.37,0a43.58,43.58,0,0,0,4.69.31h.12c.38,0,1.34-.06,2.22-.06a9.5,9.5,0,0,1,1.46.08,5.53,5.53,0,0,1,.93.31l.61.25V55.81h.58V32.91l1.62.46a6.63,6.63,0,0,0,.22-1.84A3.23,3.23,0,0,0,41.51,28.37Z" transform="translate(-21.69 -9.59)"/><circle cx="12.78" cy="4.12" r="4.12"/></svg>