<svg id="Calque_1" data-name="Calque 1" xmlns="http://www.w3.org/2000/svg" viewBox="0 0 47.85 43.21"><title>routes</title><polygon points="0.04 26.06 0.08 26.05 0.03 26.04 0.04 26.06"/><polygon points="0 23.38 0.05 23.36 0.01 23.35 0 23.38"/><path d="M51.42,28l4.9-5.63-5.21-5.48L34.46,17l-.06-5.51-2.58,0,.06,5.52-9.15.1.12,11.1,9.15-.1,0,2.48-18.1.19L9,36.47,14.24,42l17.91-.2.14,13,2.58,0-.14-13,7.89-.09-.12-11.1-7.89.08,0-2.48ZM40,39.08l-24.65.28-2.82-3,2.58-3,24.82-.28ZM25.34,19.72,50,19.43l2.82,3-2.58,3-24.82.28Z" transform="translate(-8.48 -11.52)"/></svg>