<svg id="Calque_1" data-name="Calque 1" xmlns="http://www.w3.org/2000/svg" viewBox="0 0 50.55 55.34"><defs><style>.cls-1{fill:#1d1d1b;}</style></defs><title>SoutienCommunes</title><path class="cls-1" d="M39.74,13.52a4,4,0,1,0,4,4,4,4,0,0,0-4-4Zm2.32,4a2.31,2.31,0,1,1-2.32-2.29h0A2.3,2.3,0,0,1,42.06,17.48Z" transform="translate(-7.13 -4.26)"/><path class="cls-1" d="M15.51,41.73a8,8,0,0,1,2-.47l.22,0v-4l8.84-7.12,8.84,7.12v6.13l2.57.73V36l-5.78-4.66V13.58l7.41-6,7.41,6v29l.35-.15,1.7-.72.21-.08.33-.13V12.3h0L41.1,5.43,39.65,4.26,38.2,5.43l-8.53,6.87h0v17L26.59,26.8,15.17,36v5.85Z" transform="translate(-7.13 -4.26)"/><rect class="cls-1" x="20.99" y="34.33" width="2.08" height="2.07"/><rect class="cls-1" x="15.4" y="34.33" width="2.08" height="2.07"/><path class="cls-1" d="M56.83,43.29c-1.38-1.31-3.9-1.15-8.12.54l-.4.15-1.69.72a50.52,50.52,0,0,1-7.41,2.74h0l-1.26.16-2.32,0c0-.06,0-.13,0-.19a4,4,0,0,0-3.7-3.93h-.15s-9.79,0-13.7,0a10.24,10.24,0,0,0-1.13.07,8.81,8.81,0,0,0-2.2.52,6.54,6.54,0,0,0-3.12,2.31L7.13,53l2.48,1.69L14.12,48a3.52,3.52,0,0,1,1.06-.86,5.41,5.41,0,0,1,1.9-.63,7.33,7.33,0,0,1,1.05-.08c3.41,0,11.51,0,13.29,0h.2c.3,0,1,.24,1,.94a1.19,1.19,0,0,1,0,.18l-8.88.1,0,3,14.32-.1,1.79-.21v0A50.45,50.45,0,0,0,47,47.79l2.09-.88.39-.17a14.78,14.78,0,0,1,4.6-1.33l-20,11-.05,0a4.78,4.78,0,0,1-1.41.13c-.6,0-1.31,0-2.11-.12L19.7,55.37l-.21,0a3.12,3.12,0,0,0-2.74,2.89v.5h3v-.32l.15-.07,10.33,1.06a23.79,23.79,0,0,0,2.39.14,5.59,5.59,0,0,0,3-.58l21.69-12,.19-.54A3.13,3.13,0,0,0,56.83,43.29Z" transform="translate(-7.13 -4.26)"/></svg>